REM MD5 e878509d3558989bc2e34806899ba857
FILE "Moorhen 3 - Chicken Chase (Europe) (Es,It).bin" BINARY
  TRACK 01 MODE2/2352
    INDEX 01 00:00:00
  TRACK 02 AUDIO
    INDEX 00 00:16:41
    INDEX 01 00:18:41
  TRACK 03 AUDIO
    INDEX 00 01:02:19
    INDEX 01 01:04:19
  TRACK 04 AUDIO
    INDEX 00 01:21:59
    INDEX 01 01:23:59
REM LEADOUT 05:23:59
